<svg width="24" height="24" viewBox="0 0 24 24" fill="none" xmlns="http://www.w3.org/2000/svg">
<path fill-rule="evenodd" clip-rule="evenodd" d="M12.7013 3.31936C13.2153 2.85848 14.0056 2.90153 14.4665 3.41551C17.0516 6.29854 18.7423 7.8889 21.5102 10.4927C21.7037 10.6746 21.9023 10.8615 22.1069 11.0542C22.3665 11.2985 22.5094 11.642 22.4996 11.9984C22.4899 12.3547 22.3285 12.69 22.0561 12.9198C18.4274 15.9805 16.5118 17.6516 13.8041 20.5344C13.3315 21.0376 12.5404 21.0623 12.0372 20.5897C11.534 20.1171 11.5092 19.326 11.9818 18.8228C13.9934 16.6812 15.5926 15.1778 17.6775 13.3675C13.077 13.525 6.73707 13.6094 3.11207 13.2067C2.42594 13.1304 1.93152 12.5124 2.00776 11.8263C2.08399 11.1401 2.70202 10.6457 3.38815 10.7219C7.00807 11.1242 13.6474 11.0155 18.2407 10.8458C16.286 8.99243 14.7336 7.45821 12.6052 5.08451C12.1443 4.57053 12.1873 3.78025 12.7013 3.31936Z" fill="#1C1B1B"/>
</svg>
