<svg width="16" height="16" viewBox="0 0 16 16" fill="none" xmlns="http://www.w3.org/2000/svg">
<path fill-rule="evenodd" clip-rule="evenodd" d="M0.667969 2.83333C0.667969 2.3731 1.04106 2 1.5013 2H3.83464C4.23978 2 4.58623 2.29139 4.65565 2.69055L4.88686 4.02006L4.92188 4.21082C5.01393 3.82087 5.37716 3.54354 5.78997 3.57191C7.33289 3.67797 9.39976 3.62131 11.105 3.53497C11.9525 3.49206 12.7015 3.44233 13.2384 3.40334C13.5068 3.38385 13.7219 3.36707 13.8696 3.35518C13.9434 3.34924 14.0004 3.34453 14.0387 3.34132L14.0819 3.33766L14.0958 3.33646C14.3603 3.31347 14.6199 3.41786 14.7948 3.61753C14.9697 3.81722 15.039 4.08829 14.9815 4.34744L13.6481 10.3474C13.5634 10.7287 13.2252 11 12.8346 11H5.16797C4.76576 11 4.42095 10.7127 4.34833 10.3171L3.24547 4.30946L3.13372 3.66667H1.5013C1.04106 3.66667 0.667969 3.29357 0.667969 2.83333ZM13.1106 5.08336C12.5921 5.11968 11.9277 5.16212 11.1893 5.1995C9.4748 5.28631 7.32409 5.34796 5.67567 5.23466C5.40996 5.21639 5.18193 5.07548 5.04308 4.871L5.86225 9.33333H12.1662L13.1106 5.08336Z" fill="#1C1B1B"/>
<path d="M6.07251 11.6125C5.86225 11.5126 5.63738 11.4829 5.41763 11.509C4.94868 11.5377 4.51255 11.803 4.29773 12.2423C4.28892 12.2604 4.28058 12.2785 4.27269 12.2967C4.26274 12.315 4.25319 12.3334 4.24406 12.3521C4.21807 12.4299 4.19879 12.5086 4.18614 12.5874C4.17403 12.6582 4.16808 12.7294 4.16804 12.8003C4.16309 13.3106 4.43598 13.7959 4.96107 14.0453C5.55552 14.2976 6.38135 14.1724 6.70081 13.519C6.75076 13.4169 6.78632 13.3079 6.80817 13.1956C6.91354 12.6537 6.69999 12.0327 6.24462 11.7129C6.19061 11.675 6.1332 11.6413 6.07251 11.6125Z" fill="#1C1B1B"/>
<path d="M12.0725 11.6125C11.8623 11.5126 11.6374 11.4829 11.4176 11.509C10.9487 11.5377 10.5125 11.803 10.2977 12.2423C10.2889 12.2604 10.2806 12.2785 10.2727 12.2967C10.2627 12.315 10.2532 12.3334 10.2441 12.3521C10.2181 12.4299 10.1988 12.5086 10.1861 12.5874C10.174 12.6582 10.1681 12.7294 10.168 12.8003C10.1631 13.3106 10.436 13.7959 10.9611 14.0453C11.5555 14.2976 12.3813 14.1724 12.7008 13.519C12.7508 13.4169 12.7863 13.3079 12.8082 13.1956C12.9135 12.6537 12.7 12.0327 12.2446 11.7129C12.1906 11.675 12.1332 11.6413 12.0725 11.6125Z" fill="#1C1B1B"/>
</svg>
