<svg width="20" height="20" viewBox="0 0 20 20" fill="none" xmlns="http://www.w3.org/2000/svg">
<path fill-rule="evenodd" clip-rule="evenodd" d="M0.832031 3.54167C0.832031 2.96637 1.2984 2.5 1.8737 2.5H4.79036C5.2968 2.5 5.72985 2.86424 5.81663 3.36319L6.10565 5.02507L6.14943 5.26353C6.26449 4.77608 6.71851 4.42942 7.23453 4.46489C9.16319 4.59746 11.7468 4.52664 13.8783 4.41871C14.9377 4.36507 15.8739 4.30292 16.5451 4.25418C16.8805 4.22982 17.1494 4.20883 17.334 4.19398C17.4263 4.18655 17.4975 4.18066 17.5454 4.17664L17.5994 4.17208L17.6168 4.17058C17.9474 4.14184 18.2719 4.27232 18.4906 4.52192C18.7092 4.77152 18.7959 5.11037 18.7239 5.4343L17.0572 12.9343C16.9513 13.4109 16.5286 13.75 16.0404 13.75H6.45703C5.95428 13.75 5.52326 13.3909 5.43249 12.8964L4.05391 5.38682L3.91422 4.58333H1.8737C1.2984 4.58333 0.832031 4.11696 0.832031 3.54167ZM16.3853 6.3542C15.7372 6.3996 14.9067 6.45265 13.9837 6.49938C11.8406 6.60789 9.15218 6.68496 7.09166 6.54332C6.75952 6.52049 6.47449 6.34435 6.30091 6.08875L7.32488 11.6667H15.2048L16.3853 6.3542Z" fill="#1C1B1B"/>
<path d="M7.58771 14.5156C7.32489 14.3907 7.04379 14.3536 6.76911 14.3862C6.18292 14.4221 5.63776 14.7537 5.36924 15.3029C5.35822 15.3254 5.34779 15.3481 5.33793 15.3709C5.3255 15.3937 5.31356 15.4168 5.30215 15.4401C5.26965 15.5374 5.24556 15.6358 5.22975 15.7342C5.21461 15.8228 5.20717 15.9118 5.20711 16.0004C5.20093 16.6383 5.54204 17.2449 6.19841 17.5566C6.94148 17.872 7.97375 17.7156 8.37308 16.8988C8.43552 16.7711 8.47997 16.6349 8.50728 16.4944C8.63899 15.8171 8.37205 15.0409 7.80285 14.6411C7.73533 14.5937 7.66357 14.5516 7.58771 14.5156Z" fill="#1C1B1B"/>
<path d="M15.0877 14.5156C14.8249 14.3907 14.5438 14.3536 14.2691 14.3862C13.6829 14.4221 13.1378 14.7537 12.8692 15.3029C12.8582 15.3254 12.8478 15.3481 12.8379 15.3709C12.8255 15.3937 12.8136 15.4168 12.8022 15.4401C12.7697 15.5374 12.7456 15.6358 12.7297 15.7342C12.7146 15.8228 12.7072 15.9118 12.7071 16.0004C12.7009 16.6383 13.042 17.2449 13.6984 17.5566C14.4415 17.872 15.4738 17.7156 15.8731 16.8988C15.9355 16.7711 15.98 16.6349 16.0073 16.4944C16.139 15.8171 15.8721 15.0409 15.3028 14.6411C15.2353 14.5937 15.1636 14.5516 15.0877 14.5156Z" fill="#1C1B1B"/>
</svg>
