<svg width="20" height="20" viewBox="0 0 20 20" fill="none" xmlns="http://www.w3.org/2000/svg">
<path fill-rule="evenodd" clip-rule="evenodd" d="M19.2451 2.45428C19.4598 2.65154 19.582 2.92978 19.582 3.22136V13.638C19.582 14.2133 19.1157 14.6797 18.5404 14.6797H1.8737C1.2984 14.6797 0.832031 14.2133 0.832031 13.638V3.22136C0.832031 2.64606 1.2984 2.17969 1.8737 2.17969C2.23371 2.17969 2.55106 2.36232 2.73816 2.63999C2.94875 2.57704 3.17915 2.58032 3.39546 2.66003C3.3996 2.66067 3.40409 2.66135 3.40892 2.66205C3.47791 2.67209 3.58816 2.68323 3.74621 2.69339C4.0594 2.71354 4.49678 2.72601 5.03883 2.73051C6.1192 2.73947 7.56293 2.71642 9.14925 2.66973C12.323 2.5763 16.0233 2.38957 18.4523 2.18342C18.7428 2.15876 19.0304 2.25701 19.2451 2.45428ZM3.35418 2.6522C3.35418 2.6522 3.36001 2.65312 3.36969 2.65565C3.3587 2.65358 3.35418 2.6522 3.35418 2.6522ZM3.10596 4.72324C3.06475 4.71725 2.99673 4.70735 2.91536 4.68898V12.5964H17.4987V4.34756C15.0946 4.52146 11.9518 4.67146 9.21055 4.75216C7.61211 4.79921 6.13918 4.82304 5.02155 4.81377C4.4646 4.80915 3.98265 4.79624 3.6125 4.77243C3.42888 4.76062 3.25645 4.74515 3.10881 4.72366L3.10596 4.72324ZM11.0185 5.86414C10.8983 5.42171 10.4938 5.09636 10.0132 5.09636C8.0356 5.09636 6.646 6.92514 6.646 8.71378C6.646 10.5867 8.1132 12.1797 10.0132 12.1797C11.9133 12.1797 13.3805 10.5867 13.3805 8.71378C13.3805 8.05631 13.2215 7.62077 12.959 7.14774C12.8488 6.94922 12.2396 6.04086 11.0185 5.86414ZM9.54141 8.75923C9.43086 9.07085 9.18661 9.29754 8.8955 9.39688C9.12297 9.82571 9.55557 10.0964 10.0132 10.0964C10.682 10.0964 11.2972 9.51857 11.2972 8.71378C11.2972 8.49544 11.2722 8.40466 11.1499 8.18148C11.1458 8.17599 11.1389 8.167 11.1288 8.15536C11.1007 8.12268 11.0574 8.07975 11.0001 8.04003C10.9009 7.97132 10.733 7.89017 10.4385 7.92853C10.1657 7.96408 9.95238 8.12373 9.77654 8.35179C9.69054 8.46333 9.62757 8.57459 9.58688 8.65729C9.567 8.6977 9.55372 8.72869 9.54665 8.74601C9.54393 8.75269 9.54219 8.75718 9.54141 8.75923ZM10.6464 17.2727C7.91217 17.3832 4.97847 17.5699 3.11351 17.7082C2.53979 17.7507 2.04021 17.3201 1.99768 16.7464C1.95514 16.1726 2.38575 15.6731 2.95948 15.6305C4.84129 15.491 7.79906 15.3027 10.5622 15.191C13.2738 15.0814 15.9409 15.0377 17.1481 15.2231C17.7167 15.3104 18.1069 15.8422 18.0196 16.4108C17.9323 16.9794 17.4005 17.3696 16.8319 17.2823C15.8685 17.1343 13.4322 17.16 10.6464 17.2727Z" fill="#1C1B1B"/>
</svg>
