<svg width="16" height="16" viewBox="0 0 16 16" fill="none" xmlns="http://www.w3.org/2000/svg">
<path fill-rule="evenodd" clip-rule="evenodd" d="M5.37354 2.21291C5.7162 1.90565 6.24305 1.93435 6.55031 2.27701C8.27376 4.19902 9.40085 5.25927 11.2462 6.99513C11.3751 7.11643 11.5075 7.24103 11.644 7.36945C11.817 7.53234 11.9122 7.76137 11.9058 7.99892C11.8993 8.23648 11.7917 8.45997 11.61 8.61319C9.19093 10.6537 7.91385 11.7677 6.10872 13.6896C5.79363 14.025 5.26625 14.0416 4.93078 13.7265C4.59532 13.4114 4.5788 12.884 4.89389 12.5485C6.23493 11.1208 7.84969 8.87357 9.23958 7.66667C7.93651 6.43112 6.72842 4.97214 5.30944 3.38968C5.00219 3.04702 5.03089 2.52016 5.37354 2.21291Z" fill="#1C1B1B"/>
</svg>
