<svg width="24" height="24" viewBox="0 0 24 24" fill="none" xmlns="http://www.w3.org/2000/svg">
<path fill-rule="evenodd" clip-rule="evenodd" d="M18.2149 11.7631C18.2076 12.1007 18.2343 12.6942 18.5715 13.2112C18.7354 13.4625 18.9743 13.6354 19.2396 13.7197C19.5018 13.934 19.7975 14.1003 20.1063 14.2069C20.3163 14.2794 20.5412 14.3282 20.7762 14.3447C22.4325 14.461 23.3603 13.021 23.4921 11.9518L23.4953 11.9257L23.4974 11.8995C23.5867 10.7946 23.0307 9.83627 22.1541 9.34044C22.0351 9.27313 21.911 9.21479 21.7829 9.16579C21.641 9.11147 21.4942 9.06868 21.3439 9.03786L21.2628 9.02123L21.1803 9.01543C21.1587 9.01392 21.1372 9.01267 21.1158 9.01168C21.0948 9.00969 21.0738 9.00796 21.0527 9.00648C20.0723 8.93766 19.1968 9.42333 18.6923 10.1625C18.437 10.5136 18.2585 10.9438 18.2193 11.4291C18.2102 11.5418 18.2089 11.6533 18.2149 11.7631ZM4.27918 9.13691C3.95437 9.04449 3.37344 8.92022 2.78795 9.11563C2.50333 9.21062 2.27561 9.39808 2.12703 9.63344C1.85336 9.83291 1.61768 10.0769 1.4364 10.3487C1.31314 10.5335 1.20904 10.7388 1.13365 10.9619C0.602218 12.535 1.76066 13.7968 2.76177 14.1948L2.78622 14.2045L2.81105 14.2132C3.85741 14.579 4.92522 14.2835 5.62667 13.5608C5.72188 13.4627 5.8097 13.3574 5.8895 13.2459C5.97797 13.1223 6.0565 12.9911 6.12432 12.8535L6.16092 12.7793L6.18741 12.7009C6.19432 12.6804 6.20097 12.6599 6.20736 12.6394C6.21458 12.6196 6.22158 12.5997 6.22834 12.5797C6.54289 11.6486 6.29448 10.6787 5.70694 10.0037C5.43185 9.66786 5.0608 9.3863 4.60116 9.22561C4.49446 9.18831 4.38687 9.15892 4.27918 9.13691ZM9.81389 10.8691C9.70013 11.1881 9.64286 11.5225 9.64616 11.8491C9.6484 12.0712 9.67804 12.2995 9.74145 12.5263C10.1885 14.1255 11.8564 14.5155 12.9077 14.2804L12.9334 14.2746L12.9588 14.2678C14.0294 13.9807 14.7453 13.135 14.9177 12.1427C14.9411 12.008 14.9544 11.8716 14.9575 11.7345C14.961 11.5825 14.952 11.4299 14.9305 11.278L14.9189 11.1961L14.8967 11.1164C14.8909 11.0956 14.8848 11.0749 14.8785 11.0544C14.8734 11.0339 14.8679 11.0136 14.8622 10.9932C14.5977 10.0467 13.8461 9.38524 12.9804 9.15846C12.5639 9.03593 12.0987 9.01231 11.6284 9.13845C11.5193 9.16773 11.4138 9.20405 11.3124 9.24653C10.992 9.35313 10.442 9.57769 10.0683 10.069C9.88664 10.3078 9.80407 10.5909 9.81389 10.8691Z" fill="#1C1B1B"/>
</svg>
