<svg width="20" height="20" viewBox="0 0 20 20" fill="none" xmlns="http://www.w3.org/2000/svg">
<path fill-rule="evenodd" clip-rule="evenodd" d="M12.8385 1.09956C12.4007 0.830523 11.8322 0.920888 11.4994 1.31239L11.1928 1.67233C10.9963 1.90284 10.7135 2.23403 10.369 2.63646C9.67982 3.44143 8.74386 4.5309 7.75619 5.66956C7.55549 5.90094 7.35328 6.13363 7.15109 6.36577C7.15109 6.36577 6.1739 7.51764 5.77714 7.93423C4.48607 9.39815 3.35155 10.6516 2.8247 11.1534C2.68488 11.2865 2.54056 11.4453 2.42896 11.6295C2.32255 11.8052 2.18669 12.1022 2.22554 12.4722C2.2693 12.889 2.50902 13.1815 2.74881 13.3498C2.96167 13.4991 3.18644 13.5638 3.34043 13.5964C3.65329 13.6626 4.00789 13.6622 4.31747 13.6453C4.64528 13.6275 5.0047 13.5857 5.36077 13.5336C5.9172 13.452 6.50038 13.3398 7.00082 13.2344L6.67007 18.5895C6.64165 19.0496 6.91904 19.4737 7.35199 19.632C7.78495 19.7903 8.27047 19.6452 8.54559 19.2753C9.52552 17.9578 10.9719 16.0634 12.4188 14.2597C12.8156 13.8431 13.7402 12.6411 13.7402 12.6411C14.4255 11.8183 15.0709 11.0733 15.624 10.4801C15.9629 10.1166 16.2568 9.82128 16.497 9.60377C16.6169 9.49519 16.7156 9.41315 16.7936 9.35453C16.8708 9.29646 16.9076 9.27671 16.9076 9.27671C17.3472 9.0674 17.5831 8.58154 17.4758 8.10667C17.3685 7.63179 16.9466 7.29457 16.4598 7.29457H12.5239C12.5473 6.70289 12.5906 6.01293 12.6625 5.31854C12.7867 4.12015 12.9846 3.03071 13.2535 2.39039C13.4525 1.91665 13.2763 1.36859 12.8385 1.09956ZM10.5326 5.64339C10.5352 5.64047 10.5377 5.63755 10.5402 5.63463C10.4497 6.69122 10.4181 7.68581 10.4181 8.33623C10.4181 8.91153 10.8845 9.3779 11.4598 9.3779H13.8073C13.3196 9.91487 12.7845 10.5356 12.2305 11.1985L10.8577 12.8765C10.2127 13.6792 9.56749 14.5005 8.96157 15.2834L9.16611 11.9719C9.18662 11.6398 9.04723 11.3178 8.791 11.1055C8.53479 10.8933 8.19205 10.8163 7.86957 10.8982L7.86689 10.8988L7.855 10.9018L7.80618 10.914C7.76294 10.9247 7.69895 10.9404 7.61763 10.96C7.45489 10.9991 7.22343 11.0534 6.95065 11.1139C6.51472 11.2104 5.98302 11.3202 5.46165 11.4084C5.56473 11.2961 5.67139 11.1791 5.78116 11.0582L10.5351 5.63037L10.5326 5.64339ZM3.77179 11.5582C3.76631 11.5571 3.76747 11.5569 3.77404 11.5587L3.77179 11.5582Z" fill="#1C1B1B"/>
</svg>
