<svg width="24" height="24" viewBox="0 0 24 24" fill="none" xmlns="http://www.w3.org/2000/svg">
<path fill-rule="evenodd" clip-rule="evenodd" d="M20.6092 8.05836C21.0701 8.57234 21.0271 9.36263 20.5131 9.82351C17.6301 12.4087 16.0397 14.0993 13.4359 16.8673C13.2539 17.0607 13.067 17.2594 12.8744 17.464C12.6301 17.7235 12.2865 17.8664 11.9302 17.8567C11.5739 17.847 11.2386 17.6856 11.0088 17.4131C7.94809 13.7844 6.27701 11.8688 3.39422 9.16112C2.89102 8.68849 2.86625 7.89742 3.33888 7.39422C3.81152 6.89103 4.60259 6.86625 5.10578 7.33888C7.24742 9.35045 10.6182 11.7726 12.4286 13.8574C14.2819 11.9028 16.4704 10.0907 18.8441 7.96221C19.3581 7.50133 20.1483 7.54438 20.6092 8.05836Z" fill="#1C1B1B" fill-opacity="0.5"/>
</svg>
