<svg width="20" height="20" viewBox="0 0 20 20" fill="none" xmlns="http://www.w3.org/2000/svg">
<path fill-rule="evenodd" clip-rule="evenodd" d="M7.87936 1.52653C7.97403 1.05841 8.43026 0.755666 8.89839 0.850335C10.1571 1.10489 11.314 1.56159 12.2325 2.06085C13.0782 2.52047 13.8201 3.06946 14.217 3.60329C15.3445 4.72883 15.9993 5.96148 16.0432 7.31724C16.0874 8.68116 15.5072 10.0015 14.5126 11.2785C14.2711 11.5886 14.0089 11.8677 13.73 12.1155C17.3836 13.0984 19.1654 16.0093 19.1654 18.3015C19.1654 18.7791 18.7782 19.1663 18.3006 19.1663C17.823 19.1663 17.082 18.8106 17.082 18.333C17.082 16.5688 14.9987 14.1663 11.0153 13.749C10.9403 13.749 10.8659 13.7492 10.7921 13.7497C10.3615 13.8132 9.92507 13.8248 9.4912 13.7839C7.7382 13.8721 6.8917 14.0204 5.83203 14.583C4.54817 15.2646 3.46398 16.1385 2.91536 18.333C2.79953 18.7963 1.95061 19.2563 1.48727 19.1405C1.02393 19.0247 0.742221 18.5551 0.858056 18.0918C1.49541 15.5424 2.685 13.8912 4.50061 12.9273C5.08256 12.6184 5.71631 12.3874 6.39663 12.2166C6.27939 12.1176 6.16455 12.013 6.05239 11.9028C4.89159 10.7628 4.21644 9.51249 4.1718 8.13511C4.12761 6.77119 4.70781 5.45082 5.70243 4.17383C6.37577 3.30933 7.21049 2.68519 8.11605 2.31012C7.91795 2.11207 7.81968 1.82166 7.87936 1.52653ZM10.7921 11.2785C10.4169 11.2819 9.85105 11.2625 9.4912 11.2785C8.67419 11.1764 8.16674 11.0724 7.4987 10.4163C6.83065 9.76026 6.69132 8.71731 6.66536 7.91634C6.63897 7.10191 6.64529 6.51202 7.4987 5.41634C9.03838 3.43955 11.1817 3.29706 12.9154 4.99967C13.8675 5.93481 13.9311 6.51627 13.957 7.31724C13.9834 8.13168 13.7688 8.90399 12.9154 9.99967C12.2356 10.8724 11.7217 11.1138 10.7921 11.2785Z" fill="#1C1B1B"/>
</svg>
