<svg width="16" height="16" viewBox="0 0 16 16" fill="none" xmlns="http://www.w3.org/2000/svg">
<path fill-rule="evenodd" clip-rule="evenodd" d="M6.30583 1.22181C6.38157 0.847314 6.74656 0.605119 7.12105 0.680854C8.12803 0.884496 9.05351 1.24986 9.78838 1.64927C10.4649 2.01696 11.0584 2.45615 11.3759 2.88322C12.2779 3.78365 12.8018 4.76977 12.8369 5.85438C12.8723 6.94551 12.4081 8.0018 11.6124 9.0234C11.4192 9.27144 11.2094 9.49475 10.9864 9.69301C13.9092 10.4793 15.3346 12.808 15.3346 14.6418C15.3346 15.0239 15.0249 15.3336 14.6428 15.3336C14.2607 15.3336 13.668 15.0491 13.668 14.667C13.668 13.2557 12.0013 11.3337 8.81462 10.9998C8.75461 10.9998 8.69507 11 8.636 11.0003C8.29153 11.0511 7.9424 11.0605 7.5953 11.0277C6.19291 11.0983 5.5157 11.2169 4.66797 11.667C3.64088 12.2123 2.77353 12.9114 2.33464 14.667C2.24197 15.0377 1.56283 15.4056 1.19216 15.313C0.821487 15.2203 0.59612 14.8447 0.688788 14.474C1.19867 12.4345 2.15034 11.1136 3.60283 10.3424C4.06839 10.0953 4.57539 9.91047 5.11965 9.77386C5.02586 9.69463 4.93399 9.61096 4.84426 9.52284C3.91562 8.61083 3.37549 7.61058 3.33979 6.50867C3.30443 5.41753 3.76859 4.36124 4.56429 3.33965C5.10296 2.64805 5.77074 2.14874 6.49518 1.84868C6.33671 1.69024 6.25809 1.45792 6.30583 1.22181ZM8.636 9.0234C8.33587 9.0261 7.88319 9.01059 7.5953 9.0234C6.9417 8.94171 6.53574 8.85853 6.0013 8.33366C5.46687 7.80879 5.3554 6.97443 5.33464 6.33366C5.31352 5.68211 5.31858 5.2102 6.0013 4.33366C7.23305 2.75223 8.94771 2.63823 10.3346 4.00033C11.0964 4.74843 11.1472 5.2136 11.168 5.85438C11.1891 6.50593 11.0174 7.12378 10.3346 8.00033C9.79084 8.6985 9.37967 8.89165 8.636 9.0234Z" fill="#1C1B1B"/>
</svg>
