<svg width="21" height="18" viewBox="0 0 21 18" fill="none" xmlns="http://www.w3.org/2000/svg">
<path fill-rule="evenodd" clip-rule="evenodd" d="M10.7439 0.320633C11.2599 -0.142082 12.0533 -0.0988648 12.516 0.417162C15.1115 3.31165 16.8089 4.90834 19.5878 7.52249C19.782 7.70516 19.9815 7.8928 20.1869 8.0862C20.4475 8.33151 20.5909 8.67641 20.5812 9.03417C20.5714 9.39192 20.4094 9.72848 20.1358 9.95923C16.4927 13.0321 14.5695 14.7098 11.851 17.6041C11.3765 18.1093 10.5823 18.1342 10.0771 17.6596C9.5719 17.1851 9.54702 16.3909 10.0215 15.8857C12.0411 13.7356 13.6467 12.2262 15.7398 10.4087C11.1211 10.5668 4.7559 10.6516 1.11649 10.2472C0.427631 10.1707 -0.0687538 9.55021 0.00778641 8.86135C0.0843266 8.17249 0.704808 7.67611 1.39367 7.75265C5.02798 8.15646 11.6937 8.04739 16.3052 7.87695C14.3428 6.01626 12.7843 4.47594 10.6473 2.0928C10.1846 1.57677 10.2278 0.783348 10.7439 0.320633Z" fill="#1C1B1B"/>
</svg>
