<svg width="21" height="18" viewBox="0 0 21 18" fill="none" xmlns="http://www.w3.org/2000/svg">
<path fill-rule="evenodd" clip-rule="evenodd" d="M9.83764 17.6794C9.32161 18.1421 8.52819 18.0989 8.06547 17.5828C5.47002 14.6883 3.77266 13.0917 0.993701 10.4775C0.799514 10.2948 0.600045 10.1072 0.394619 9.9138C0.13404 9.66848 -0.00940348 9.32359 0.000356967 8.96583C0.0101155 8.60808 0.172151 8.27152 0.445715 8.04077C4.08879 4.96789 6.01202 3.29017 8.73049 0.395913C9.20501 -0.109284 9.99922 -0.134157 10.5044 0.340355C11.0096 0.81487 11.0345 1.60908 10.56 2.11428C8.54041 4.26444 6.93482 5.77377 4.8417 7.59132C9.46045 7.4332 15.8256 7.34838 19.465 7.75276C20.1539 7.8293 20.6503 8.44979 20.5737 9.13865C20.4972 9.82751 19.8767 10.3239 19.1878 10.2474C15.5535 9.84354 8.88784 9.95261 4.27628 10.1231C6.23867 11.9837 7.79724 13.5241 9.93417 15.9072C10.3969 16.4232 10.3537 17.2167 9.83764 17.6794Z" fill="#1C1B1B"/>
</svg>
